<svg width="97" height="96" viewBox="0 0 97 96" fill="none" xmlns="http://www.w3.org/2000/svg">
<path d="M48.8374 0C22.3414 0 0.837402 21.504 0.837402 48C0.837402 74.496 22.3414 96 48.8374 96C75.3334 96 96.8374 74.496 96.8374 48C96.8374 21.504 75.3334 0 48.8374 0ZM48.8374 86.4C27.6694 86.4 10.4374 69.168 10.4374 48C10.4374 26.832 27.6694 9.6 48.8374 9.6C70.0054 9.6 87.2374 26.832 87.2374 48C87.2374 69.168 70.0054 86.4 48.8374 86.4ZM44.0374 67.2H53.6374V76.8H44.0374V67.2ZM51.7654 19.392C41.8774 17.952 33.1414 24.048 30.5014 32.784C29.6374 35.568 31.7494 38.4 34.6774 38.4H35.6374C37.6054 38.4 39.1894 37.008 39.8614 35.184C41.3974 30.912 45.9574 27.984 50.9014 29.04C55.4614 30 58.8214 34.464 58.4374 39.12C57.9574 45.552 50.6614 46.944 46.6774 52.944C46.6774 52.992 46.6294 52.992 46.6294 53.04C46.5814 53.136 46.5334 53.184 46.4854 53.28C46.0534 54 45.6214 54.816 45.2854 55.68C45.2374 55.824 45.1414 55.92 45.0934 56.064C45.0454 56.16 45.0454 56.256 44.9974 56.4C44.4214 58.032 44.0374 60 44.0374 62.4H53.6374C53.6374 60.384 54.1654 58.704 54.9814 57.264C55.0774 57.12 55.1254 56.976 55.2214 56.832C55.6054 56.16 56.0854 55.536 56.5654 54.96C56.6134 54.912 56.6614 54.816 56.7094 54.768C57.1894 54.192 57.7174 53.664 58.2934 53.136C62.9014 48.768 69.1414 45.216 67.8454 36.048C66.6934 27.696 60.1174 20.64 51.7654 19.392Z" fill="#F9F9F9"/>
</svg>
